<svg width="1024" height="1024" viewBox="0 0 1024 1024" fill="none" xmlns="http://www.w3.org/2000/svg">
  <defs>
    <linearGradient id="bg" x1="180" y1="128" x2="852" y2="896" gradientUnits="userSpaceOnUse">
      <stop offset="0" stop-color="#F7F8FA" stop-opacity="0.96"/>
      <stop offset="0.52" stop-color="#D6DAE0" stop-opacity="0.92"/>
      <stop offset="1" stop-color="#AEB6C2" stop-opacity="0.94"/>
    </linearGradient>
    <linearGradient id="shine" x1="242" y1="156" x2="730" y2="628" gradientUnits="userSpaceOnUse">
      <stop offset="0" stop-color="#FFFFFF" stop-opacity="0.82"/>
      <stop offset="1" stop-color="#FFFFFF" stop-opacity="0"/>
    </linearGradient>
    <linearGradient id="rim" x1="210" y1="168" x2="844" y2="856" gradientUnits="userSpaceOnUse">
      <stop offset="0" stop-color="#FFFFFF" stop-opacity="0.95"/>
      <stop offset="1" stop-color="#8D97A5" stop-opacity="0.45"/>
    </linearGradient>
    <filter id="shadow" x="102" y="106" width="820" height="820" filterUnits="userSpaceOnUse" color-interpolation-filters="sRGB">
      <feFlood flood-opacity="0" result="BackgroundImageFix"/>
      <feColorMatrix in="SourceAlpha" type="matrix" values="0 0 0 0 0 0 0 0 0 0 0 0 0 0 0 0 0 0 127 0" result="hardAlpha"/>
      <feOffset dy="26"/>
      <feGaussianBlur stdDeviation="34"/>
      <feColorMatrix type="matrix" values="0 0 0 0 0.211765 0 0 0 0 0.247059 0 0 0 0 0.313726 0 0 0 0.24 0"/>
      <feBlend mode="normal" in2="BackgroundImageFix" result="effect1_dropShadow_0_1"/>
      <feBlend mode="normal" in="SourceGraphic" in2="effect1_dropShadow_0_1" result="shape"/>
    </filter>
  </defs>

  <g filter="url(#shadow)">
    <rect x="170" y="146" width="684" height="684" rx="176" fill="url(#bg)"/>
    <rect x="170.5" y="146.5" width="683" height="683" rx="175.5" stroke="url(#rim)" stroke-opacity="0.9"/>
    <path d="M248 194C335 182 438 224 523 306C594 374 647 461 678 553C604 382 445 238 248 194Z" fill="url(#shine)"/>
    <path d="M226 524C226 386.967 337.072 275.895 474.105 275.895H549.895C686.928 275.895 798 386.967 798 524V524C798 661.033 686.928 772.105 549.895 772.105H474.105C337.072 772.105 226 661.033 226 524V524Z" fill="#EEF1F4" fill-opacity="0.34"/>
  </g>

  <path
    d="M400 449.5C317.727 363.295 299.433 240.523 345.205 203.833C390.977 167.142 486.477 235.023 529.659 385.159C572.841 235.023 668.341 167.142 714.113 203.833C759.885 240.523 741.591 363.295 659.318 449.5C750.841 495.25 804.5 579.955 804.5 675.023C804.5 809.273 682.405 918.5 531.75 918.5C381.095 918.5 259 809.273 259 675.023C259 579.955 312.568 495.25 404.091 449.5H400Z"
    stroke="#202327"
    stroke-width="36"
    stroke-linecap="round"
    stroke-linejoin="round"
  />
</svg>
